<?xml version="1.0" standalone="no"?>
<!DOCTYPE svg PUBLIC "-//W3C//DTD SVG 20010904//EN"
 "http://www.w3.org/TR/2001/REC-SVG-20010904/DTD/svg10.dtd">
<svg version="1.0" xmlns="http://www.w3.org/2000/svg"
 width="362.000000pt" height="73.000000pt" viewBox="0 0 362.000000 73.000000"
 preserveAspectRatio="xMidYMid meet">

<g transform="translate(0.000000,73.000000) scale(0.100000,-0.100000)"
fill="#000000" stroke="none">
<path d="M842 704 c-13 -9 -78 -36 -145 -61 -247 -91 -237 -74 -237 -397 l0
-246 28 0 c18 0 30 7 37 22 8 16 41 32 131 62 77 26 138 54 167 76 l46 35 1
263 c0 144 -1 262 -3 262 -1 0 -13 -7 -25 -16z"/>
<path d="M2 450 l3 -263 47 -33 c26 -18 92 -47 145 -64 110 -37 153 -58 153
-77 0 -8 12 -13 31 -13 l30 0 -3 254 -3 255 -34 35 c-22 23 -61 45 -105 62
-71 27 -230 90 -254 101 -10 4 -12 -48 -10 -257z"/>
<path d="M3082 641 c-9 -5 -12 -25 -10 -57 l3 -49 55 0 55 0 3 49 c4 56 -5 66
-58 66 -19 0 -41 -4 -48 -9z"/>
<path d="M1120 350 l0 -281 158 3 157 3 0 50 0 50 -97 3 -98 3 -2 222 -3 222
-57 3 -58 3 0 -281z"/>
<path d="M1560 468 c-18 -13 -42 -34 -52 -48 -26 -36 -41 -137 -29 -209 19
-115 61 -146 191 -144 47 1 99 6 115 11 26 7 30 13 33 49 l3 41 -101 -1 c-90
-2 -103 0 -116 17 -30 42 -21 46 107 46 l121 0 -3 83 c-5 94 -28 139 -85 163
-54 22 -145 18 -184 -8z m148 -95 c6 -9 12 -25 12 -35 0 -16 -9 -18 -65 -18
-56 0 -65 2 -65 18 0 21 19 47 40 55 23 9 64 -2 78 -20z"/>
<path d="M1975 485 c-5 -2 -22 -6 -37 -9 -25 -6 -28 -11 -28 -46 l0 -39 98 -3
c96 -3 97 -3 100 -29 3 -25 1 -26 -69 -33 -113 -10 -159 -47 -159 -128 0 -109
74 -156 202 -125 31 8 61 10 65 6 4 -4 28 -9 53 -11 l45 -3 3 41 c2 27 -2 45
-13 54 -12 10 -15 36 -15 134 0 133 -7 153 -60 181 -26 13 -154 20 -185 10z
m133 -277 l-3 -43 -50 0 -50 0 0 35 c0 36 16 47 78 49 27 1 28 -1 25 -41z"/>
<path d="M2333 483 c-10 -3 -13 -55 -13 -209 l0 -205 58 3 57 3 3 136 3 137
57 14 57 14 6 49 c4 28 3 54 -2 59 -5 5 -30 0 -61 -13 l-53 -22 -14 20 c-13
20 -65 28 -98 14z"/>
<path d="M2632 477 c-9 -11 -12 -67 -10 -208 l3 -194 58 -3 57 -3 0 150 c0
141 1 151 20 161 12 6 35 10 53 8 48 -5 57 -32 57 -185 l0 -133 55 0 55 0 -1
153 c0 175 -9 211 -59 245 -31 21 -42 23 -95 18 -71 -8 -77 -8 -136 0 -33 4
-48 2 -57 -9z"/>
<path d="M3082 482 c-9 -7 -12 -55 -10 -208 l3 -199 55 0 55 0 3 199 c3 219 4
216 -58 216 -19 0 -41 -4 -48 -8z"/>
<path d="M3354 472 c-71 -45 -104 -145 -85 -261 19 -115 60 -146 191 -144 47
1 99 6 115 10 26 8 30 15 33 50 l3 41 -101 -1 c-90 -2 -103 0 -116 17 -30 42
-21 46 106 46 l120 0 0 73 c0 129 -44 180 -163 185 -58 2 -78 -1 -103 -16z
m136 -92 c11 -11 20 -29 20 -40 0 -18 -7 -20 -65 -20 -56 0 -65 2 -65 18 0 53
72 80 110 42z"/>
</g>
</svg>
